# File created by Blade
# Date/Time:  Wed Jan 21 18:40:15 2015
#---------------------------------------------------------
:version 1.10
:name HOM
:units
  mass 1.0
  length 1.000000
  angle deg
:documentation
     Acclaim Skeleton File
:root
   axis xyz
   order TX TY TZ RX RY RZ
   position 0.000000 0.000000 0.000000
   orientation 0 0 0
:bonedata
   begin
      id 1
      name RightUpLeg_dum
      direction -1.000000 0.000000 0.000000
      length 3.693983
      axis 0.0 0.0 0.0 xyz
   end
   begin
      id 2
      name LeftUpLeg_dum
      direction 1.000000 0.000000 0.000000
      length 3.693983
      axis 0.0 0.0 0.0 xyz
   end
   begin
      id 3
      name Spine_dum
      direction 0.000000 1.000000 0.000000
      length 2.392956
      axis 0.0 0.0 0.0 xyz
   end
   begin
      id 4
      name RightUpLeg
      direction 0.000000 -1.000000 0.000000
      length 15.795667
      axis 0.0 0.0 0.0 xyz
      dof rx ry rz
   end
   begin
      id 5
      name RightLeg
      direction 0.000000 -1.000000 0.000000
      length 14.766989
      axis 0.0 0.0 0.0 xyz
      dof rx ry rz
   end
   begin
      id 6
      name RightFoot
      direction 0.000000 -0.258819 0.965926
      length 4.962790
      axis 15.0 0.0 0.0 xyz
      dof rx ry rz
   end
   begin
      id 7
      name RightToeBase
      direction 0.000000 0.000000 1.000000
      length 2.952750
      axis 0.0 0.0 0.0 xyz
      dof rx ry rz
   end
   begin
      id 8
      name LeftUpLeg
      direction 0.000000 -1.000000 0.000000
      length 15.795667
      axis 0.0 0.0 0.0 xyz
      dof rx ry rz
   end
   begin
      id 9
      name LeftLeg
      direction 0.000000 -1.000000 0.000000
      length 14.766989
      axis 0.0 0.0 0.0 xyz
      dof rx ry rz
   end
   begin
      id 10
      name LeftFoot
      direction 0.000000 -0.258819 0.965926
      length 4.962790
      axis 15.0 0.0 0.0 xyz
      dof rx ry rz
   end
   begin
      id 11
      name LeftToeBase
      direction 0.000000 0.000000 1.000000
      length 2.952750
      axis 0.0 0.0 0.0 xyz
      dof rx ry rz
   end
   begin
      id 12
      name Spine
      direction 0.000000 1.000000 0.000000
      length 0.000000
      axis 0.0 0.0 0.0 xyz
      dof rx ry rz
   end
   begin
      id 13
      name Spine_dum1
      direction 0.000000 1.000000 0.000000
      length 13.207411
      axis 0.0 0.0 0.0 xyz
   end
   begin
      id 14
      name Spine_dum2
      direction 0.000000 1.000000 0.000000
      length 13.207411
      axis 0.0 0.0 0.0 xyz
   end
   begin
      id 15
      name Spine_dum3
      direction 0.000000 1.000000 0.000000
      length 19.250100
      axis 0.0 0.0 0.0 xyz
   end
   begin
      id 16
      name RightShoulder
      direction -1.000000 0.000000 0.000000
      length 8.140465
      axis 0.0 0.0 90.0 xyz
      dof rx ry rz
   end
   begin
      id 17
      name RightArm
      direction -1.000000 0.000000 0.000000
      length 10.649840
      axis 0.0 0.0 90.0 xyz
      dof rx ry rz
   end
   begin
      id 18
      name RightForeArm
      direction -1.000000 0.000000 0.000000
      length 8.304624
      axis 0.0 0.0 90.0 xyz
      dof ry rz rx
   end
   begin
      id 19
      name RightHand
      direction -1.000000 0.000000 0.000000
      length 0.000000
      axis 0.0 0.0 90.0 xyz
      dof rx ry rz
   end
   begin
      id 20
      name RightHand_dum1
      direction -1.000000 0.000000 0.000000
      length 3.937000
      axis 0.0 0.0 90.0 xyz
   end
   begin
      id 21
      name RightHand_dum2
      direction 0.000000 0.000000 0.000000
      length 0.000000
      axis 0.0 0.0 90.0 xyz
   end
   begin
      id 22
      name RightHandThumb1
      direction 0.000000 0.000000 1.000000
      length 3.937000
      axis 0.0 0.0 90.0 xyz
      dof rx rz ry
   end
   begin
      id 23
      name LeftShoulder
      direction 1.000000 0.000000 0.000000
      length 8.140465
      axis 0.0 0.0 -90.0 xyz
      dof rx ry rz
   end
   begin
      id 24
      name LeftArm
      direction 1.000000 0.000000 0.000000
      length 10.649840
      axis 0.0 0.0 -90.0 xyz
      dof rx ry rz
   end
   begin
      id 25
      name LeftForeArm
      direction 1.000000 0.000000 0.000000
      length 8.304624
      axis 0.0 0.0 -90.0 xyz
      dof ry rz rx
   end
   begin
      id 26
      name LeftHand
      direction 1.000000 0.000000 0.000000
      length 0.000000
      axis 0.0 0.0 -90.0 xyz
      dof rx ry rz
   end
   begin
      id 27
      name LeftHand_dum1
      direction 1.000000 0.000000 0.000000
      length 3.937000
      axis 0.0 0.0 -90.0 xyz
   end
   begin
      id 28
      name LeftHand_dum2
      direction 0.000000 0.000000 0.000000
      length 0.000000
      axis 0.0 0.0 -90.0 xyz
   end
   begin
      id 29
      name LeftHandThumb1
      direction 0.000000 0.000000 1.000000
      length 3.937000
      axis 0.0 0.0 -90.0 xyz
      dof rx rz ry
   end
   begin
      id 30
      name Head
      direction 0.000000 1.000000 0.000000
      length 4.527550
      axis 0.0 0.0 0.0 xyz
      dof rx ry rz
   end
:hierarchy
   begin
      root RightUpLeg_dum LeftUpLeg_dum Spine_dum
      RightUpLeg_dum RightUpLeg
      LeftUpLeg_dum LeftUpLeg
      Spine_dum Spine
      RightUpLeg RightLeg
      RightLeg RightFoot
      RightFoot RightToeBase
      LeftUpLeg LeftLeg
      LeftLeg LeftFoot
      LeftFoot LeftToeBase
      Spine Spine_dum1 Spine_dum2 Spine_dum3
      Spine_dum1 RightShoulder
      Spine_dum2 LeftShoulder
      Spine_dum3 Head
      RightShoulder RightArm
      RightArm RightForeArm
      RightForeArm RightHand
      RightHand RightHand_dum1 RightHand_dum2
      RightHand_dum2 RightHandThumb1
      LeftShoulder LeftArm
      LeftArm LeftForeArm
      LeftForeArm LeftHand
      LeftHand LeftHand_dum1 LeftHand_dum2
      LeftHand_dum2 LeftHandThumb1
   end

# File created by Blade
# Date/Time:  Wed Jan 21 18:40:08 2015
# Frame Rate: 120.000 fps
#------------------------------------------------------
:FULLY-SPECIFIED
:DEGREES
1659
root 0.804036 28.252098 -10.640098 137.171722 -28.424141 0.231485
RightUpLeg -159.030001 -17.367485 16.953820
RightLeg -0.210683 -0.000000 0.000000
RightFoot 10.198017 0.278440 45.553301
RightToeBase 18.666865 -0.000000 -0.000000
LeftUpLeg -125.785856 -4.322838 -45.557988
LeftLeg -13.224928 -0.000000 0.000000
LeftFoot 4.654096 0.701407 -24.883783
LeftToeBase 7.891179 -0.000000 -0.000000
Spine -39.869830 -61.148812 53.496636
RightShoulder -33.577775 -14.484353 -44.638038
RightArm -31.576698 -25.406216 72.306052
RightForeArm 3.912711 0.000000 -17.550530
RightHand 10.911720 -0.000000 1.211104
RightHandThumb1 -24.326973 -0.000000 -32.862282
LeftShoulder -2.129905 -14.274969 56.202142
LeftArm 56.082418 19.663460 -10.902294
LeftForeArm 26.837969 -0.000000 11.268804
LeftHand -17.139249 -0.000000 29.825191
LeftHandThumb1 -26.253704 0.000000 33.147579
Head -34.632839 -52.868379 42.660853
1660
root 0.804747 28.252011 -10.636794 137.153913 -28.418510 0.223899
RightUpLeg -158.993328 -17.377842 16.941903
RightLeg -0.227108 -0.000000 0.000000
RightFoot 10.166630 0.274623 45.485597
RightToeBase 18.765276 -0.000000 -0.000000
LeftUpLeg -125.772514 -4.274571 -45.528931
LeftLeg -13.225700 -0.000000 0.000000
LeftFoot 4.620178 0.733805 -24.895672
LeftToeBase 7.924100 -0.000000 -0.000000
Spine -39.882286 -61.127494 53.515272
RightShoulder -33.599445 -14.479550 -44.617205
RightArm -31.533140 -25.240374 72.233271
RightForeArm 3.824792 0.000000 -17.562266
RightHand 10.609810 -0.000000 1.065820
RightHandThumb1 -24.326973 -0.000000 -32.862282
LeftShoulder -2.112433 -14.268795 56.176803
LeftArm 56.072507 19.721319 -10.893832
LeftForeArm 26.846123 -0.000000 11.232460
LeftHand -17.138303 -0.000000 29.840341
LeftHandThumb1 -26.253704 0.000000 33.147579
Head -34.708303 -52.805183 42.590911
1661
root 0.804104 28.253814 -10.633098 137.164433 -28.410389 0.185171
RightUpLeg -158.865307 -17.527101 16.831547
RightLeg -0.388364 -0.000000 0.000000
RightFoot 10.058879 0.042720 45.453859
RightToeBase 18.769850 -0.000000 -0.000000
LeftUpLeg -125.778555 -4.217624 -45.515828
LeftLeg -13.239266 -0.000000 0.000000
LeftFoot 4.617013 0.782168 -24.906385
LeftToeBase 7.870005 -0.000000 -0.000000
Spine -39.865392 -61.075993 53.478141
RightShoulder -33.591211 -14.452003 -44.589855
RightArm -31.569940 -25.143074 72.243214
RightForeArm 3.788314 -0.000000 -17.594948
RightHand 10.644106 -0.000000 0.855228
RightHandThumb1 -24.326973 -0.000000 -32.862282
LeftShoulder -2.071999 -14.318860 56.157236
LeftArm 56.026001 19.814282 -10.929660
LeftForeArm 26.898360 -0.000000 11.201220
LeftHand -17.114515 -0.000000 29.882991
LeftHandThumb1 -26.253704 0.000000 33.147579
Head -34.762360 -52.720907 42.530589
1662
root 0.805645 28.255329 -10.627054 137.145273 -28.408125 0.179327
RightUpLeg -158.814780 -17.561413 16.808906
RightLeg -0.413503 -0.000000 0.000000
RightFoot 10.054500 0.001361 45.519556
RightToeBase 18.692649 -0.000000 -0.000000
LeftUpLeg -125.774423 -4.215317 -45.548918
LeftLeg -13.194521 -0.000000 0.000000
LeftFoot 4.598118 0.697189 -25.003125
LeftToeBase 7.947619 -0.000000 -0.000000
Spine -39.837093 -61.031234 53.455994
RightShoulder -33.588811 -14.456168 -44.552626
RightArm -31.597251 -25.129791 72.333264
RightForeArm 3.889676 -0.000000 -17.636686
RightHand 10.587051 -0.000000 0.949213
RightHandThumb1 -24.326973 -0.000000 -32.862282
LeftShoulder -2.021449 -14.355180 56.119139
LeftArm 55.985935 19.874106 -10.929829
LeftForeArm 26.959020 0.000000 11.173199
LeftHand -17.043410 -0.000000 29.890902
LeftHandThumb1 -26.253704 0.000000 33.147579
Head -34.864676 -52.645061 42.530616
1663
root 0.805658 28.255489 -10.621321 137.135772 -28.406556 0.156244
RightUpLeg -158.778016 -17.568824 16.782698
RightLeg -0.414507 -0.000000 0.000000
RightFoot 9.995473 -0.006425 45.405335
RightToeBase 18.825916 -0.000000 -0.000000
LeftUpLeg -125.758119 -4.172046 -45.547906
LeftLeg -13.199664 -0.000000 0.000000
LeftFoot 4.576978 0.708226 -25.001993
LeftToeBase 7.931237 -0.000000 -0.000000
Spine -39.807147 -60.979783 53.432401
RightShoulder -33.617148 -14.474065 -44.489755
RightArm -31.569001 -25.177102 72.419751
RightForeArm 4.088835 -0.000000 -17.688093
RightHand 10.819302 -0.000000 1.174197
RightHandThumb1 -24.326973 -0.000000 -32.862282
LeftShoulder -2.010260 -14.428069 56.075500
LeftArm 55.981913 19.986138 -10.908911
LeftForeArm 26.955113 -0.000000 11.124872
LeftHand -16.998332 -0.000000 30.012715
LeftHandThumb1 -26.253704 0.000000 33.147579
Head -35.025095 -52.552142 42.589527
1664
root 0.804999 28.254020 -10.615484 137.124451 -28.410012 0.107454
RightUpLeg -158.710466 -17.566146 16.731953
RightLeg -0.445584 -0.000000 0.000000
RightFoot 9.991123 -0.029749 45.448852
RightToeBase 18.808715 -0.000000 -0.000000
LeftUpLeg -125.664532 -4.021274 -45.447161
LeftLeg -13.375828 -0.000000 0.000000
LeftFoot 4.564009 0.962967 -24.885595
LeftToeBase 7.879908 -0.000000 -0.000000
Spine -39.730384 -60.902382 53.336593
RightShoulder -33.651100 -14.499108 -44.451560
RightArm -31.541841 -25.151306 72.476667
RightForeArm 4.103595 -0.000000 -17.704693
RightHand 10.698663 0.000000 1.313185
RightHandThumb1 -24.326973 -0.000000 -32.862282
LeftShoulder -1.955172 -14.441084 56.021845
LeftArm 55.924252 20.000441 -10.971040
LeftForeArm 26.979900 -0.000000 11.128292
LeftHand -17.004120 -0.000000 30.005047
LeftHandThumb1 -26.253704 0.000000 33.147579
Head -35.151838 -52.520130 42.620735
1665
root 0.803860 28.254075 -10.608134 137.111863 -28.408234 0.079955
RightUpLeg -158.649171 -17.592296 16.690274
RightLeg -0.472018 -0.000000 0.000000
RightFoot 9.986269 -0.057841 45.474591
RightToeBase 18.724921 -0.000000 -0.000000
LeftUpLeg -125.618234 -3.946913 -45.416293
LeftLeg -13.436755 -0.000000 0.000000
LeftFoot 4.553283 1.043224 -24.869414
LeftToeBase 7.874564 -0.000000 -0.000000
Spine -39.681576 -60.827803 53.286867
RightShoulder -33.662844 -14.490193 -44.402280
RightArm -31.545556 -25.059431 72.492290
RightForeArm 3.924716 -0.000000 -17.688378
RightHand 10.346562 -0.000000 1.301662
RightHandThumb1 -24.326973 -0.000000 -32.862282
LeftShoulder -1.893621 -14.471418 55.966045
LeftArm 55.837861 20.019409 -11.054641
LeftForeArm 27.047172 -0.000000 11.134652
LeftHand -17.007971 -0.000000 30.093902
LeftHandThumb1 -26.253704 0.000000 33.147579
Head -35.260072 -52.486728 42.653029
1666
root 0.802174 28.255768 -10.601082 137.079324 -28.379582 0.078252
RightUpLeg -158.585780 -17.634230 16.673779
RightLeg -0.476995 -0.000000 0.000000
RightFoot 9.920346 -0.093613 45.423850
RightToeBase 18.786664 -0.000000 -0.000000
LeftUpLeg -125.694309 -4.065905 -45.610556
LeftLeg -13.216934 -0.000000 0.000000
LeftFoot 4.542075 0.656354 -25.029164
LeftToeBase 7.966816 -0.000000 -0.000000
Spine -39.599744 -60.758525 53.252186
RightShoulder -33.681908 -14.460526 -44.341592
RightArm -31.561068 -24.974723 72.487223
RightForeArm 3.948583 -0.000000 -17.651419
RightHand 10.562646 -0.000000 1.192191
RightHandThumb1 -24.326973 -0.000000 -32.862282
LeftShoulder -1.844388 -14.493114 55.931564
LeftArm 55.749561 20.053653 -11.121992
LeftForeArm 27.062886 -0.000000 11.172216
LeftHand -17.087909 0.000000 30.191233
LeftHandThumb1 -26.253704 0.000000 33.147579
Head -35.405374 -52.367843 42.744536
1667
root 0.800636 28.255990 -10.593088 137.064745 -28.376794 0.051313
RightUpLeg -158.523661 -17.659198 16.636794
RightLeg -0.499608 -0.000000 0.000000
RightFoot 9.889037 -0.114326 45.402034
RightToeBase 18.790951 -0.000000 -0.000000
LeftUpLeg -125.660542 -3.991591 -45.591837
LeftLeg -13.246904 -0.000000 0.000000
LeftFoot 4.537182 0.682166 -25.046845
LeftToeBase 7.914649 -0.000000 -0.000000
Spine -39.541417 -60.680238 53.218637
RightShoulder -33.722966 -14.415743 -44.314761
RightArm -31.566771 -24.960287 72.525305
RightForeArm 4.009288 -0.000000 -17.651136
RightHand 10.694141 -0.000000 1.245865
RightHandThumb1 -24.326973 -0.000000 -32.862282
LeftShoulder -1.824069 -14.487796 55.901923
LeftArm 55.663401 20.059028 -11.233400
LeftForeArm 27.111067 -0.000000 11.203351
LeftHand -17.101935 -0.000000 30.321852
LeftHandThumb1 -26.253704 0.000000 33.147579
Head -35.576205 -52.236670 42.845210
1668
root 0.798044 28.256095 -10.584851 137.052621 -28.385060 0.017369
RightUpLeg -158.436117 -17.688389 16.581003
RightLeg -0.571598 -0.000000 0.000000
RightFoot 9.865128 -0.159790 45.391267
RightToeBase 18.852953 -0.000000 -0.000000
LeftUpLeg -125.609954 -3.909953 -45.569896
LeftLeg -13.303694 -0.000000 0.000000
LeftFoot 4.523747 0.772037 -25.034950
LeftToeBase 7.909550 -0.000000 -0.000000
Spine -39.495355 -60.606084 53.184638
RightShoulder -33.741585 -14.335861 -44.256138
RightArm -31.592058 -24.871846 72.489398
RightForeArm 4.035737 -0.000000 -17.610702
RightHand 10.592194 -0.000000 1.221056
RightHandThumb1 -24.326973 -0.000000 -32.862282
LeftShoulder -1.820434 -14.401426 55.872520
LeftArm 55.638121 20.013053 -11.301033
LeftForeArm 27.125241 0.000000 11.209196
LeftHand -17.156861 -0.000000 30.514184
LeftHandThumb1 -26.253704 0.000000 33.147579
Head -35.764846 -52.176180 42.974767
1669
root 0.795519 28.255883 -10.577404 137.026288 -28.392359 -0.011119
RightUpLeg -158.348205 -17.746867 16.519573
RightLeg -0.620760 -0.000000 0.000000
RightFoot 9.829547 -0.209995 45.381929
RightToeBase 18.819988 -0.000000 -0.000000
LeftUpLeg -125.556947 -3.808291 -45.532159
LeftLeg -13.349969 -0.000000 0.000000
LeftFoot 4.501418 0.867210 -25.034838
LeftToeBase 7.880992 -0.000000 -0.000000
Spine -39.432727 -60.508143 53.130241
RightShoulder -33.770948 -14.344822 -44.219757
RightArm -31.556988 -24.831121 72.526467
RightForeArm 4.060568 -0.000000 -17.635295
RightHand 10.676153 -0.000000 1.256038
RightHandThumb1 -24.326973 -0.000000 -32.862282
LeftShoulder -1.780136 -14.444655 55.806493
LeftArm 55.596539 20.103327 -11.305809
LeftForeArm 27.112371 -0.000000 11.220957
LeftHand -17.235130 -0.000000 30.628346
LeftHandThumb1 -26.253704 0.000000 33.147579
Head -35.917679 -52.178928 43.052818
